<svg width="256" height="256" viewBox="0 0 256 256" fill="none" xmlns="http://www.w3.org/2000/svg">
<path d="M76.032 119.44L65.664 167.696C64.7253 171.963 63.616 175.589 62.336 178.576C61.1413 181.648 59.6053 184.123 57.728 186C55.8507 187.963 53.5467 189.371 50.816 190.224C48.1707 191.077 45.0133 191.504 41.344 191.504C40.064 191.504 38.6133 191.333 36.992 190.992C35.3707 190.651 34.0907 190.139 33.152 189.456L35.584 180.624C37.376 181.733 39.8507 182.288 43.008 182.288C46.4213 182.288 49.0667 180.965 50.944 178.32C52.8213 175.675 54.2293 172.176 55.168 167.824L65.408 119.44H52.608L54.784 110.608H67.328L68.48 105.232C70.1013 97.552 72.96 91.664 77.056 87.568C81.2373 83.3867 87.424 81.296 95.616 81.296C98.2613 81.296 100.779 81.552 103.168 82.064C105.557 82.576 107.349 83.1733 108.544 83.856L104.32 92.304C103.637 91.9627 102.571 91.5787 101.12 91.152C99.7547 90.64 97.5787 90.384 94.592 90.384C92.1173 90.384 89.984 90.768 88.192 91.536C86.4853 92.2187 84.992 93.2427 83.712 94.608C82.5173 95.888 81.536 97.4667 80.768 99.344C80.0853 101.136 79.488 103.141 78.976 105.36L77.824 110.608H101.888L99.712 119.44H76.032ZM162.944 88.464C157.397 91.9627 152.277 96.016 147.584 100.624C142.976 105.232 138.965 110.181 135.552 115.472C132.139 120.677 129.493 126.139 127.616 131.856C125.739 137.573 124.8 143.376 124.8 149.264C124.8 155.408 125.909 161.467 128.128 167.44C130.347 173.413 134.016 179.088 139.136 184.464L132.224 191.376C126.08 185.232 121.6 178.619 118.784 171.536C116.053 164.453 114.688 157.243 114.688 149.904C114.688 143.163 115.755 136.507 117.888 129.936C120.021 123.28 123.008 116.923 126.848 110.864C130.773 104.805 135.424 99.1733 140.8 93.968C146.261 88.6773 152.277 84.112 158.848 80.272L162.944 88.464ZM167.168 183.184C172.715 179.685 177.835 175.632 182.528 171.024C187.221 166.416 191.232 161.509 194.56 156.304C197.973 151.013 200.619 145.509 202.496 139.792C204.459 134.075 205.44 128.272 205.44 122.384C205.44 116.24 204.288 110.181 201.984 104.208C199.765 98.2347 196.139 92.56 191.104 87.184L197.888 80.272C204.032 86.416 208.512 93.0293 211.328 100.112C214.144 107.195 215.552 114.405 215.552 121.744C215.552 128.485 214.485 135.184 212.352 141.84C210.219 148.411 207.189 154.725 203.264 160.784C199.424 166.843 194.773 172.475 189.312 177.68C183.936 182.971 177.92 187.536 171.264 191.376L167.168 183.184Z" fill="url(#paint0_linear_8_4)"/>
<defs>
<linearGradient id="paint0_linear_8_4" x1="128" y1="64" x2="128" y2="192" gradientUnits="userSpaceOnUse">
<stop stop-color="#CC55FF"/>
<stop offset="1" stop-color="#55CCFF"/>
</linearGradient>
</defs>
</svg>
